<?xml version="1.0" standalone="no"?>
<!DOCTYPE svg PUBLIC "-//W3C//DTD SVG 20010904//EN"
 "http://www.w3.org/TR/2001/REC-SVG-20010904/DTD/svg10.dtd">
<svg version="1.0" xmlns="http://www.w3.org/2000/svg"
 width="1024.000000pt" height="1024.000000pt" viewBox="0 0 1024.000000 1024.000000"
 preserveAspectRatio="xMidYMid meet">

<g transform="translate(0.000000,1024.000000) scale(0.100000,-0.100000)"
fill="#000000" stroke="none">
<path d="M0 5120 l0 -5120 5120 0 5120 0 0 5120 0 5120 -5120 0 -5120 0 0
-5120z m5940 3294 c113 -26 198 -93 219 -171 7 -25 11 -257 11 -660 l0 -623
-190 0 -190 0 -26 53 c-23 44 -68 114 -122 187 -12 16 -7 24 37 65 89 83 131
198 131 355 0 64 -4 83 -23 111 -40 60 -97 74 -155 39 -45 -28 -60 -70 -60
-165 0 -130 -48 -210 -141 -235 -48 -13 -78 -7 -154 33 -46 24 -66 28 -99 24
-110 -15 -131 -151 -33 -215 53 -34 177 -72 237 -72 l53 0 36 -58 c35 -54 69
-116 69 -125 0 -2 -19 -9 -42 -16 -50 -15 -113 -50 -159 -88 -43 -37 -103
-130 -118 -186 -12 -41 -16 -45 -50 -51 -95 -15 -228 -111 -271 -197 -31 -60
-27 -104 15 -146 33 -33 39 -35 87 -31 47 5 56 10 102 61 99 109 200 122 296
40 53 -46 70 -80 70 -143 0 -55 -16 -93 -63 -153 -50 -64 -77 -142 -77 -227 0
-91 10 -129 52 -200 37 -60 101 -114 153 -129 67 -18 139 22 151 85 9 49 -3
74 -65 131 -56 52 -56 52 -56 112 0 51 4 65 33 103 58 77 82 124 99 192 20 84
9 172 -33 261 -33 71 -129 171 -191 200 -24 11 -43 23 -43 27 0 20 80 94 125
114 49 23 58 24 333 24 l282 0 0 -711 0 -711 -32 -60 c-76 -142 -223 -207
-441 -195 -358 20 -671 240 -773 544 -20 60 -42 176 -44 230 0 6 -35 36 -78
66 -43 30 -108 88 -146 128 -237 256 -248 663 -25 943 22 27 39 53 39 57 0 5
-9 42 -20 81 -25 91 -27 244 -4 337 56 226 240 408 487 482 40 12 75 27 79 33
4 6 15 36 24 66 43 148 138 261 276 329 134 67 293 87 428 55z m955 1 c198
-50 368 -207 425 -390 16 -51 44 -82 84 -91 102 -22 254 -111 343 -203 119
-122 172 -248 180 -427 4 -91 2 -125 -16 -194 l-21 -83 49 -66 c106 -144 146
-262 146 -436 -1 -147 -13 -201 -76 -332 -39 -81 -63 -116 -121 -176 -40 -41
-100 -92 -133 -113 -33 -21 -63 -42 -66 -47 -3 -4 -11 -48 -17 -98 -7 -49 -26
-126 -42 -170 -106 -291 -418 -505 -766 -526 -212 -13 -365 53 -445 192 l-29
50 0 1468 c0 1217 2 1473 14 1500 21 51 100 114 170 137 77 24 236 27 321 5z
m-3568 -551 c36 -23 47 -60 34 -119 -6 -27 -94 -354 -196 -725 -173 -633 -186
-677 -215 -702 -43 -40 -106 -39 -149 1 -42 40 -41 79 9 261 22 80 107 392
190 694 89 325 157 558 168 569 41 46 108 55 159 21z m-777 -249 c40 -21 64
-69 56 -113 -4 -30 -38 -68 -202 -233 -149 -150 -194 -201 -188 -212 5 -9 89
-93 187 -188 98 -94 184 -184 192 -200 43 -82 -28 -172 -122 -154 -32 6 -72
41 -272 238 -131 131 -240 246 -248 265 -30 72 -21 86 231 341 127 128 245
242 261 252 36 23 66 24 105 4z m1194 0 c18 -9 139 -123 269 -254 234 -235
237 -238 237 -280 0 -23 -5 -52 -11 -64 -16 -31 -459 -475 -491 -493 -45 -24
-84 -18 -124 19 -31 28 -36 39 -36 75 1 25 9 53 21 70 11 15 99 105 195 201
97 96 176 177 176 180 0 3 -88 93 -195 202 -191 192 -195 197 -195 238 0 53
13 77 53 101 39 24 59 25 101 5z m264 -1750 c46 -20 804 -773 828 -824 15 -32
17 -144 15 -1268 -1 -1343 2 -1258 -58 -1315 -64 -61 15 -58 -1333 -58 -1088
0 -1235 2 -1268 15 -47 20 -79 50 -103 97 -18 36 -19 84 -19 1628 0 1735 -4
1626 58 1683 61 58 32 56 975 57 760 0 872 -2 905 -15z m2582 -1209 c30 -8
262 -116 515 -239 253 -123 470 -227 482 -231 34 -11 91 -81 99 -121 12 -67
-3 -603 -20 -700 -42 -240 -126 -441 -253 -610 -171 -226 -450 -451 -738 -592
-88 -43 -92 -44 -170 -40 -90 4 -116 15 -300 125 -163 98 -296 202 -425 332
-227 228 -330 417 -396 724 -25 112 -27 144 -31 443 l-5 323 25 42 c24 42 34
48 533 288 459 220 565 267 614 269 9 1 40 -5 70 -13z"/>
<path d="M6809 8015 c-54 -29 -70 -111 -50 -250 29 -193 161 -333 346 -366 85
-15 92 -17 131 -51 47 -42 64 -78 64 -137 0 -86 -29 -134 -105 -174 -33 -18
-55 -21 -129 -20 -106 2 -140 -11 -163 -65 -19 -45 -5 -101 33 -131 69 -54
242 -49 364 11 264 129 318 481 105 676 -68 63 -119 87 -219 107 -101 19 -146
48 -180 116 -21 44 -26 67 -26 131 0 51 -5 89 -15 108 -28 54 -101 75 -156 45z"/>
<path d="M6691 6514 c-51 -43 -51 -115 0 -163 12 -11 47 -28 78 -37 113 -33
215 -126 242 -222 9 -34 9 -55 0 -95 -16 -72 -51 -112 -126 -146 -51 -23 -68
-37 -81 -64 -23 -48 -12 -98 27 -131 44 -37 97 -35 184 8 130 63 206 169 227
317 12 78 12 79 48 90 89 28 251 153 285 220 36 68 0 152 -70 165 -50 9 -71
-2 -154 -80 -42 -39 -96 -80 -120 -91 l-44 -19 -15 24 c-30 49 -159 168 -208
193 -121 61 -223 73 -273 31z"/>
<path d="M2635 5096 c-93 -42 -99 -164 -11 -211 28 -14 89 -16 569 -13 l539 3
29 33 c47 52 37 140 -20 179 -24 17 -68 18 -551 20 -422 2 -531 0 -555 -11z"/>
<path d="M2618 4444 c-53 -28 -72 -98 -43 -154 32 -63 -6 -60 894 -60 l820 0
34 30 c58 51 55 129 -8 178 l-28 22 -821 0 c-707 -1 -825 -3 -848 -16z"/>
<path d="M2619 3805 c-65 -35 -74 -134 -17 -187 l30 -28 645 0 645 0 34 34
c29 29 34 41 34 80 0 36 -6 52 -29 78 l-29 33 -644 2 c-543 2 -647 0 -669 -12z"/>
<path d="M6995 3962 c-45 -7 -77 -38 -347 -334 l-282 -308 -151 149 c-93 93
-161 152 -178 156 -95 24 -175 -46 -164 -143 5 -43 14 -54 208 -249 112 -112
216 -211 231 -219 40 -21 99 -18 135 9 55 39 667 716 686 759 23 50 16 97 -21
139 -27 30 -79 48 -117 41z"/>
</g>
</svg>
